<svg width="14" height="14" viewBox="0 0 14 14" fill="none" xmlns="http://www.w3.org/2000/svg">
<path d="M10.4264 12H3.61699C3.36612 12 3.08538 11.7961 3.00175 11.549L1.12619 4.97786C0.773769 3.95227 1.18592 3.63717 2.0341 4.26736L3.76363 5.40777C4.15189 5.68579 4.5939 5.54369 4.76115 5.09268L6.41242 2.19506C6.74692 1.26831 7.30242 1.26831 7.63692 2.19506L9.28819 5.09268C9.45544 5.54369 9.89745 5.68579 10.2797 5.40777L11.8659 4.37857C12.7977 3.6866 13.2457 4.03876 12.8634 5.15703L11.0476 11.5613C10.958 11.7961 10.6773 12 10.4264 12Z" stroke="white" stroke-width="1.2" stroke-linecap="round" stroke-linejoin="round"/>
<path d="M5.19995 9.66699H8.79995" stroke="white" stroke-width="1.2" stroke-linecap="round" stroke-linejoin="round"/>
</svg>
