<svg width="30" height="30" viewBox="0 0 30 30" fill="none" xmlns="http://www.w3.org/2000/svg">
<path d="M0 5C0 2.23858 2.23858 0 5 0H25C27.7614 0 30 2.23858 30 5V25C30 27.7614 27.7614 30 25 30H5C2.23858 30 0 27.7614 0 25V5Z" fill="white"/>
<g clip-path="url(#clip0_4804_1564)">
<path d="M7.58577 9.89844C7.00539 10.7408 6.56432 11.6867 6.29688 12.7033H10.3908L7.58577 9.89844Z" fill="#29337A"/>
<path d="M12.4797 6.35938C11.4427 6.66136 10.4824 7.14325 9.63672 7.77177L12.4797 10.6147V6.35938Z" fill="#29337A"/>
<path d="M9.84766 22.3772C10.6409 22.9323 11.5271 23.362 12.4792 23.6392V19.7461L9.84766 22.3772Z" fill="#29337A"/>
<path d="M6.39844 17.6562C6.69602 18.6202 7.15202 19.5144 7.7348 20.3099L10.3885 17.6562H6.39844Z" fill="#29337A"/>
<path d="M7.73532 9.69141C7.68501 9.76019 7.63542 9.82996 7.58682 9.90045L10.3919 12.7053H6.29792C6.23158 12.9578 6.17742 13.2152 6.13281 13.4761H11.5203L7.73532 9.69141Z" fill="white"/>
<path d="M9.64062 22.2281C9.7091 22.2792 9.77948 22.3277 9.84936 22.3766L12.4809 19.7454V23.6386C12.7337 23.7125 12.9905 23.7763 13.2517 23.8276V18.6172L9.64062 22.2281Z" fill="white"/>
<path d="M6.20312 16.8867C6.25899 17.1479 6.32492 17.4051 6.40293 17.6575H10.393L7.73933 20.3112C8.02794 20.7055 8.34798 21.0756 8.69572 21.4178L13.2267 16.8867H6.20312Z" fill="white"/>
<path d="M12.4798 6.36089V10.6162L9.63682 7.77344C9.24488 8.0649 8.87852 8.38847 8.53906 8.73876L13.2505 13.4502V6.17188C12.9894 6.22348 12.7326 6.28743 12.4798 6.36089Z" fill="white"/>
<path d="M12.4801 17.6328L12.4531 17.66H12.4801V17.6328Z" fill="#D32030"/>
<path d="M13.2227 16.8865H13.2496V16.8594L13.2227 16.8865Z" fill="#D32030"/>
<path d="M16.6861 13.4766H16.6602V13.5027L16.6861 13.4766Z" fill="#D32030"/>
<path d="M12.507 12.7064L12.4805 12.6797V12.7064H12.507Z" fill="#D32030"/>
<path d="M13.25 13.4531V13.4797H13.2766L13.25 13.4531Z" fill="#D32030"/>
<path d="M17.4297 21.6452V23.6627C18.3942 23.3927 19.2934 22.9671 20.0977 22.4126L17.9117 20.2266C17.737 20.8403 17.6731 21.1576 17.4297 21.6452Z" fill="#252F6C"/>
<path d="M17.9232 10.1228L20.3096 7.7364C19.4523 7.10856 18.4797 6.6301 17.4297 6.33594V8.4084C17.7104 8.97042 17.734 9.39747 17.9232 10.1228Z" fill="#252F6C"/>
<path d="M22.2256 20.3663C22.8266 19.5578 23.295 18.6452 23.5992 17.6602H19.5195L22.2256 20.3663Z" fill="#252F6C"/>
<path d="M23.7033 12.7089C23.4301 11.6708 22.9759 10.7072 22.3772 9.85156L19.5195 12.7089H23.7033Z" fill="#252F6C"/>
<path d="M18.4492 17.043L19.0677 17.6614L22.028 20.6218C22.0952 20.5376 22.162 20.4538 22.2263 20.3675L19.5201 17.6614H23.5999C23.6776 17.4092 23.7437 17.1518 23.7994 16.8906H18.5071C18.4984 16.9999 18.4596 16.9344 18.4492 17.043Z" fill="#E7E7E7"/>
<path d="M17.8307 10.576L20.5138 7.8926C20.4465 7.84046 20.3792 7.78859 20.3105 7.73828L17.9242 10.1247C17.9489 10.219 17.8076 10.4794 17.8307 10.576Z" fill="#E7E7E7"/>
<path d="M17.431 8.24266V6.33588C17.1784 6.26512 16.9214 6.20516 16.6602 6.15625V7.08635C16.9469 7.39727 17.204 7.78779 17.431 8.24266Z" fill="#E7E7E7"/>
<path d="M18.3913 13.4753H23.8707C23.8262 13.2144 23.772 12.9572 23.7056 12.7045H19.5218L22.3795 9.84721C22.0985 9.44589 21.7863 9.06847 21.4453 8.71875L18.2266 11.9372C18.3132 12.521 18.352 12.86 18.3913 13.4753Z" fill="#E7E7E7"/>
<path d="M17.7812 20.0998L20.0974 22.4162C20.4827 22.1509 20.8455 21.8556 21.184 21.535L18.1374 18.4883C18.0401 19.0518 17.9248 19.596 17.7812 20.0998Z" fill="#E7E7E7"/>
<path d="M16.6602 22.8089V23.8455C16.9213 23.7969 17.1783 23.7367 17.431 23.6659V21.6484C17.2039 22.1035 16.9468 22.4984 16.6602 22.8089Z" fill="#E7E7E7"/>
<path d="M18.2239 11.9386L21.4423 8.72025C21.1525 8.42267 20.8418 8.14572 20.5133 7.89062L17.9844 10.42C18.0968 10.8898 18.1478 11.4275 18.2239 11.9386Z" fill="#D71F28"/>
<path d="M14.5508 6.0111C14.7007 6.00384 14.8502 6 14.9998 6C14.8493 6 14.6996 6.00384 14.5508 6.0111Z" fill="#D32030"/>
<path d="M14.9996 23.9996C14.8499 23.9996 14.7004 23.9955 14.5508 23.9883C14.6996 23.9958 14.8491 23.9996 14.9996 23.9996Z" fill="#D32030"/>
<path d="M15 23.9971C15.5678 23.9971 16.1223 23.9421 16.6609 23.8413V22.8047C16.1882 23.3171 15.6351 23.9971 15 23.9971Z" fill="#D32030"/>
<path d="M23.8716 13.4766H18.4634C18.535 14.6053 18.5263 15.766 18.4375 16.8871H23.8031C23.933 16.2784 24.0026 15.6478 24.0026 15.0006C24.0026 14.4808 23.9563 13.9724 23.8716 13.4766Z" fill="#D71F28"/>
<path d="M18.4515 17.0391C18.4015 17.5708 18.2273 17.9852 18.1406 18.4868L21.1872 21.5334C21.4886 21.2478 21.7704 20.9423 22.0302 20.6179L19.07 17.6574L18.4515 17.0391Z" fill="#D71F28"/>
<path d="M16.661 7.15232V6.15546C16.1225 6.05499 15.568 6 15 6C15.6351 6 16.1882 6.64004 16.661 7.15232Z" fill="#D32030"/>
<path d="M17.4297 22.0319C17.6731 21.5442 17.8819 20.9828 18.0567 20.3692L17.4297 19.7422V22.0319Z" fill="#29337A"/>
<path d="M18.1347 9.90766C17.9451 9.18234 17.7104 8.52296 17.4297 7.96094V10.6123L18.1347 9.90766Z" fill="#29337A"/>
<path d="M18.6239 17.2098C18.6341 17.1012 18.6433 16.9923 18.6521 16.8828H18.2969L18.6239 17.2098Z" fill="white"/>
<path d="M17.431 10.6125V7.961C17.2039 7.50614 16.9469 7.11534 16.6602 6.80469V11.7412L18.2081 10.1932C18.1848 10.0966 18.1603 10.0019 18.1359 9.90757L17.431 10.6125Z" fill="white"/>
<path d="M16.6875 13.4762H18.6798C18.6408 12.8609 18.5785 12.2555 18.4919 11.6719L16.6875 13.4762Z" fill="white"/>
<path d="M16.6602 23.1924C16.9469 22.8815 17.2039 22.491 17.431 22.0361V19.7463L18.0579 20.3733C18.2017 19.8693 18.3224 19.3308 18.4199 18.7674L16.6602 17.0078L16.6602 23.1924Z" fill="white"/>
<path d="M16.6608 23.1926V17.008L18.4204 18.7677C18.5069 18.2659 18.575 17.7455 18.6249 17.2136L18.2979 16.8866H18.6531C18.7419 15.7655 18.7506 14.6048 18.679 13.4761H16.6867L18.491 11.6717C18.415 11.1604 18.3209 10.6659 18.2085 10.196L16.6608 11.7439V6.80743C16.188 6.295 15.6349 6 14.9998 6C14.8502 6 14.7007 6.00384 14.5508 6.0111C14.1081 6.03325 13.674 6.0877 13.2502 6.17127V13.4495L8.53873 8.73811C8.24924 9.03684 7.97997 9.35513 7.73354 9.6915L10.7475 12.7054L11.5185 13.4762H6.13103C6.04663 13.9719 6 14.4803 6 15.0002C6 15.6474 6.06992 16.278 6.1995 16.8866H13.2233L8.69221 21.4176C8.98892 21.7091 9.30481 21.9805 9.63922 22.2289L13.2501 18.618V23.8285C13.6739 23.912 14.1083 23.9664 14.5509 23.9886C14.7006 23.9959 14.8501 24 14.9997 24C15.6349 24 16.188 23.705 16.6608 23.1926Z" fill="#E51D35"/>
</g>
<defs>
<clipPath id="clip0_4804_1564">
<rect width="18" height="18" fill="white" transform="translate(6 6)"/>
</clipPath>
</defs>
</svg>
