<svg width="30" height="30" viewBox="0 0 30 30" fill="none" xmlns="http://www.w3.org/2000/svg">
<path d="M0 5C0 2.23858 2.23858 0 5 0H25C27.7614 0 30 2.23858 30 5V25C30 27.7614 27.7614 30 25 30H5C2.23858 30 0 27.7614 0 25V5Z" fill="white"/>
<g clip-path="url(#clip0_4804_1623)">
<path d="M15 24C19.9706 24 24 19.9706 24 15C24 10.0294 19.9706 6 15 6C10.0294 6 6 10.0294 6 15C6 19.9706 10.0294 24 15 24Z" fill="#F0F0F0"/>
<path d="M15 12.6525H23.69C23.4643 11.8153 23.1213 11.0264 22.679 10.3047H15V12.6525Z" fill="#338AF3"/>
<path d="M9.39696 22.0432H20.6017C21.4231 21.389 22.1275 20.5944 22.6784 19.6953H7.32031C7.87125 20.5943 8.57564 21.389 9.39696 22.0432Z" fill="#338AF3"/>
<path d="M15 6V7.95652H20.6024C19.065 6.73209 17.1181 6 15 6Z" fill="#338AF3"/>
<path d="M15 12.6525H23.69C23.4643 11.8153 23.1213 11.0264 22.679 10.3047H15V12.6525Z" fill="#338AF3"/>
<path d="M6 15C6 15.8124 6.10828 16.5992 6.31004 17.3478H23.69C23.8917 16.5992 24 15.8124 24 15H6Z" fill="#338AF3"/>
<path d="M13.8253 11.2698L12.7261 11.7869L13.3114 12.8514L12.1178 12.6231L11.9666 13.8288L11.1353 12.942L10.3039 13.8288L10.1527 12.6231L8.95916 12.8513L9.54444 11.7868L8.44531 11.2698L9.54447 10.7528L8.95916 9.68832L10.1527 9.91662L10.304 8.71094L11.1353 9.59772L11.9666 8.71094L12.1178 9.91662L13.3114 9.68832L12.7261 10.7529L13.8253 11.2698Z" fill="#FFDA44"/>
</g>
<defs>
<clipPath id="clip0_4804_1623">
<rect width="18" height="18" fill="white" transform="translate(6 6)"/>
</clipPath>
</defs>
</svg>
