<svg width="30" height="30" viewBox="0 0 30 30" fill="none" xmlns="http://www.w3.org/2000/svg">
<path d="M0 5C0 2.23858 2.23858 0 5 0H25C27.7614 0 30 2.23858 30 5V25C30 27.7614 27.7614 30 25 30H5C2.23858 30 0 27.7614 0 25V5Z" fill="white"/>
<g clip-path="url(#clip0_4804_1504)">
<path d="M15.0028 6C14.826 6 14.6506 6.00638 14.4766 6.01634H15.5291C15.3549 6.00638 15.1796 6 15.0028 6Z" fill="#C42126"/>
<path d="M17.6593 9.29347H21.9568C21.4464 8.67204 20.8531 8.12195 20.1958 7.65625H16.9688C17.2358 8.12605 17.4654 8.6804 17.6593 9.29347Z" fill="#E7E7E7"/>
<path d="M16.9703 7.65326H20.1974C18.8633 6.70784 17.2616 6.11579 15.5271 6.01562H15.25C16.0664 6.11838 16.4414 6.72259 16.9703 7.65326Z" fill="#DC3027"/>
<path d="M23.6645 12.5669C23.5045 11.9962 23.2899 11.4487 23.0262 10.9297H18.082C18.1822 11.4553 18.2612 12.0044 18.3198 12.5669H23.6645Z" fill="#E7E7E7"/>
<path d="M17.8025 10.9265H23.0246C22.727 10.3412 22.3695 9.79196 21.9563 9.28906H17.3945C17.5554 9.79823 17.692 10.3475 17.8025 10.9265Z" fill="#DC3027"/>
<path d="M18.5078 15.8405H23.9583C23.9842 15.5635 23.9988 15.2828 23.9988 14.9992C23.9988 14.7308 23.9847 14.4657 23.9617 14.2031H18.5091C18.5269 14.7477 18.5265 15.2962 18.5078 15.8405Z" fill="#E7E7E7"/>
<path d="M23.9628 14.2036C23.9135 13.6413 23.8122 13.0942 23.6642 12.5664H18.0898C18.1458 13.1026 18.1828 13.6511 18.2008 14.2036H23.9628Z" fill="#DC3027"/>
<path d="M17.9883 19.114H23.0029C23.2704 18.5956 23.4883 18.0477 23.6518 17.4766H18.2307C18.171 18.0399 18.09 18.5888 17.9883 19.114Z" fill="#E7E7E7"/>
<path d="M23.6533 17.4771C23.8044 16.9494 23.9092 16.4023 23.9614 15.8398H18.3409C18.3218 16.3928 18.2837 16.9412 18.2266 17.4771H23.6533Z" fill="#DC3027"/>
<path d="M20.1315 22.3911C20.7982 21.9273 21.3999 21.3766 21.9184 20.7539H17.6958C17.4984 21.3695 17.264 21.923 16.9922 22.3911H20.1315Z" fill="#E7E7E7"/>
<path d="M17.5352 20.7547H21.9167C22.3348 20.2523 22.6977 19.7031 22.9997 19.1172H17.9483C17.8362 19.6967 17.6982 20.2462 17.5352 20.7547Z" fill="#DC3027"/>
<path d="M14.6718 23.9942C14.6536 23.9936 14.6354 23.9928 14.6172 23.9922C14.6354 23.9927 14.6536 23.9936 14.6718 23.9942Z" fill="#DC3027"/>
<path d="M14.9961 23.9987C16.9041 23.9987 18.6721 23.4031 20.1281 22.3906H16.8709C16.2928 23.3866 15.9114 23.9987 14.9961 23.9987Z" fill="#DC3027"/>
<path d="M14.998 23.9986C14.8887 23.9986 14.7801 23.996 14.6719 23.9922C14.7813 23.9959 14.89 23.9986 14.998 23.9986Z" fill="#C42126"/>
<path d="M17.2681 7.65625H9.80411C9.14673 8.12195 8.55358 8.67201 8.04297 9.29347H17.9584C17.7646 8.6804 17.5351 8.12605 17.2681 7.65625Z" fill="#F3F4F5"/>
<path d="M9.80469 7.65326H17.2686C16.7396 6.72259 16.0667 6.11838 15.2503 6.01562H14.4748C12.7403 6.11579 11.1386 6.70784 9.80469 7.65326Z" fill="#E73625"/>
<path d="M6.33594 12.5669H18.6037C18.5451 12.0043 18.4661 11.4553 18.3659 10.9297H6.97427C6.71051 11.4487 6.49596 11.9962 6.33594 12.5669Z" fill="#F3F4F5"/>
<path d="M8.04085 9.29297C7.6279 9.79587 7.27009 10.3451 6.97266 10.9305H18.3642C18.2537 10.3515 18.1172 9.80229 17.9563 9.29297H8.04085Z" fill="#E73625"/>
<path d="M6 14.9991C6 15.2827 6.01478 15.5634 6.04051 15.8403H18.7134C18.7321 15.2961 18.7324 14.7477 18.7146 14.2031H6.03709C6.01406 14.4656 6 14.7306 6 14.9991Z" fill="#F3F4F5"/>
<path d="M6.03906 14.2036H18.7165C18.6984 13.651 18.6613 13.1026 18.6055 12.5664H6.33748C6.18954 13.0943 6.08824 13.6413 6.03906 14.2036Z" fill="#E73625"/>
<path d="M18.5981 17.4766H6.34766C6.5111 18.0478 6.72922 18.5956 6.99652 19.114H18.3556C18.4574 18.589 18.5382 18.04 18.5981 17.4766Z" fill="#F3F4F5"/>
<path d="M6.34713 17.4771H18.5975C18.6545 16.9412 18.6927 16.3926 18.7119 15.8398H6.03906C6.0912 16.4024 6.19623 16.9494 6.34713 17.4771Z" fill="#E73625"/>
<path d="M9.86901 22.3911H17.2415C17.5133 21.9229 17.7478 21.3695 17.945 20.7539H8.08203C8.60059 21.3766 9.2021 21.9273 9.86901 22.3911Z" fill="#F3F4F5"/>
<path d="M6.99609 19.1172C7.29808 19.7031 7.66099 20.2523 8.07907 20.7547H17.9421C18.105 20.2462 18.2429 19.6967 18.355 19.1172H6.99609Z" fill="#E73625"/>
<path d="M14.6182 23.9903C14.6364 23.9909 14.6546 23.9917 14.6728 23.9923C14.7811 23.9961 14.8896 23.9987 14.9989 23.9987C15.9142 23.9987 16.6606 23.3867 17.2388 22.3906H9.86719C11.2256 23.3354 12.8561 23.9169 14.6182 23.9903Z" fill="#E73625"/>
<path d="M14.8146 6.00391C10.2026 6.09773 6.44362 9.65873 6.03906 14.1884H14.8148V6.00391H14.8146Z" fill="#283991"/>
<path d="M7.80403 11.1016L7.94113 11.5237H8.38536L8.02599 11.7848L8.16325 12.2073L7.80403 11.9461L7.44492 12.2073L7.58191 11.7848L7.22266 11.5237H7.66688L7.80403 11.1016Z" fill="#EFEFEF"/>
<path d="M7.80403 12.5938L7.94113 13.0162H8.38536L8.02599 13.2773L8.16325 13.6998L7.80403 13.4385L7.44492 13.6998L7.58191 13.2773L7.22266 13.0162H7.66688L7.80403 12.5938Z" fill="#EFEFEF"/>
<path d="M9.29246 8.86328L9.4296 9.28562H9.87368L9.51442 9.54684L9.65157 9.96902L9.29246 9.70811L8.9332 9.96902L9.07035 9.54684L8.71094 9.28562H9.15516L9.29246 8.86328Z" fill="#EFEFEF"/>
<path d="M9.29246 10.3516L9.4296 10.7739H9.87368L9.51442 11.0348L9.65157 11.4573L9.29246 11.1964L8.9332 11.4573L9.07035 11.0348L8.71094 10.7739H9.15516L9.29246 10.3516Z" fill="#EFEFEF"/>
<path d="M9.29246 11.8438L9.4296 12.2662H9.87368L9.51442 12.527L9.65157 12.9495L9.29246 12.6883L8.9332 12.9495L9.07035 12.527L8.71094 12.2662H9.15516L9.29246 11.8438Z" fill="#EFEFEF"/>
<path d="M6.67002 12.9525L6.53277 12.53L6.89202 12.2691H6.44806L6.43811 12.2383C6.38935 12.3891 6.34531 12.5417 6.30469 12.696L6.31096 12.6913L6.67002 12.9525Z" fill="#EFEFEF"/>
<path d="M7.4453 10.7152L7.8044 10.4541L8.16366 10.7152L8.0264 10.2927L8.38566 10.0316H7.94143L7.80429 9.60938L7.66715 10.0316H7.50344C7.47304 10.0776 7.44363 10.1239 7.41406 10.1707L7.58233 10.2927L7.4453 10.7152Z" fill="#EFEFEF"/>
<path d="M9.29316 8.21542L9.65226 8.47633L9.51512 8.05415L9.87422 7.79297H9.61772C9.39986 7.95584 9.18968 8.12821 8.98774 8.31008L8.93359 8.47633L9.29316 8.21542Z" fill="#EFEFEF"/>
<path d="M10.4258 7.73244L10.785 7.47126L11.1441 7.73244L11.007 7.30995L11.3661 7.04904H10.922L10.9034 6.99219C10.7529 7.06906 10.604 7.14905 10.4585 7.23418L10.5628 7.30991L10.4258 7.73244Z" fill="#EFEFEF"/>
<path d="M10.7846 8.11719L10.9218 8.53926H11.3658L11.0066 8.80044L11.1437 9.22293L10.7846 8.96171L10.4254 9.22293L10.5625 8.80044L10.2031 8.53926H10.6473L10.7846 8.11719Z" fill="#EFEFEF"/>
<path d="M10.7846 9.60938L10.9218 10.0314H11.3658L11.0066 10.2926L11.1437 10.7151L10.7846 10.4539L10.4254 10.7151L10.5625 10.2926L10.2031 10.0314H10.6473L10.7846 9.60938Z" fill="#EFEFEF"/>
<path d="M10.7846 11.1016L10.9218 11.5237H11.3658L11.0066 11.7848L11.1437 12.2073L10.7846 11.9461L10.4254 12.2073L10.5625 11.7848L10.2031 11.5237H10.6473L10.7846 11.1016Z" fill="#EFEFEF"/>
<path d="M10.7846 12.5938L10.9218 13.0162H11.3658L11.0066 13.2773L11.1437 13.6998L10.7846 13.4385L10.4254 13.6998L10.5625 13.2773L10.2031 13.0162H10.6473L10.7846 12.5938Z" fill="#EFEFEF"/>
<path d="M12.2768 7.37109L12.4139 7.79343H12.858L12.4989 8.05465L12.6359 8.47683L12.2768 8.21592L11.9174 8.47683L12.0547 8.05465L11.6953 7.79343H12.1395L12.2768 7.37109Z" fill="#EFEFEF"/>
<path d="M12.2768 8.86328L12.4139 9.28562H12.858L12.4989 9.54684L12.6359 9.96902L12.2768 9.70811L11.9174 9.96902L12.0547 9.54684L11.6953 9.28562H12.1395L12.2768 8.86328Z" fill="#EFEFEF"/>
<path d="M12.2768 10.3516L12.4139 10.7739H12.858L12.4989 11.0348L12.6359 11.4573L12.2768 11.1964L11.9174 11.4573L12.0547 11.0348L11.6953 10.7739H12.1395L12.2768 10.3516Z" fill="#EFEFEF"/>
<path d="M12.2768 11.8438L12.4139 12.2662H12.858L12.4989 12.527L12.6359 12.9495L12.2768 12.6883L11.9174 12.9495L12.0547 12.527L11.6953 12.2662H12.1395L12.2768 11.8438Z" fill="#EFEFEF"/>
<path d="M13.769 6.625L13.9061 7.04734H14.3502L13.9909 7.30825L14.1281 7.73074L13.769 7.46952L13.4096 7.73074L13.5469 7.30825L13.1875 7.04734H13.6316L13.769 6.625Z" fill="#EFEFEF"/>
<path d="M13.769 8.11719L13.9061 8.53926H14.3502L13.9909 8.80044L14.1281 9.22293L13.769 8.96171L13.4096 9.22293L13.5469 8.80044L13.1875 8.53926H13.6316L13.769 8.11719Z" fill="#EFEFEF"/>
<path d="M13.769 9.60938L13.9061 10.0314H14.3502L13.9909 10.2926L14.1281 10.7151L13.769 10.4539L13.4096 10.7151L13.5469 10.2926L13.1875 10.0314H13.6316L13.769 9.60938Z" fill="#EFEFEF"/>
<path d="M13.769 11.1016L13.9061 11.5237H14.3502L13.9909 11.7848L14.1281 12.2073L13.769 11.9461L13.4096 12.2073L13.5469 11.7848L13.1875 11.5237H13.6316L13.769 11.1016Z" fill="#EFEFEF"/>
<path d="M13.769 12.5938L13.9061 13.0162H14.3502L13.9909 13.2773L14.1281 13.6998L13.769 13.4385L13.4096 13.6998L13.5469 13.2773L13.1875 13.0162H13.6316L13.769 12.5938Z" fill="#EFEFEF"/>
</g>
<defs>
<clipPath id="clip0_4804_1504">
<rect width="18" height="18" fill="white" transform="translate(6 6)"/>
</clipPath>
</defs>
</svg>
