<svg width="30" height="30" viewBox="0 0 30 30" fill="none" xmlns="http://www.w3.org/2000/svg">
<path d="M0 5C0 2.23858 2.23858 0 5 0H25C27.7614 0 30 2.23858 30 5V25C30 27.7614 27.7614 30 25 30H5C2.23858 30 0 27.7614 0 25V5Z" fill="white"/>
<g clip-path="url(#clip0_4804_1682)">
<path d="M6.42497 12.2585C6.14927 13.1222 5.99996 14.0424 6 14.9975C5.99996 15.9527 6.14931 16.8729 6.425 17.7367L15 18.128L23.575 17.7367C23.8507 16.873 24 15.9527 24 14.9976C24 14.0424 23.8507 13.1222 23.575 12.2585L15 11.8672L6.42497 12.2585Z" fill="#F0F0F0"/>
<path d="M23.5759 12.2585L15.0009 11.8672L6.42585 12.2585C6.34415 12.5146 6.2738 12.7757 6.21484 13.0411H23.7868C23.7279 12.7756 23.6576 12.5145 23.5759 12.2585Z" fill="#D80027"/>
<path d="M6.21484 16.9531C6.27373 17.2186 6.34408 17.4796 6.42578 17.7357L6.42663 17.7357L15.0007 18.127L23.5757 17.7357C23.6574 17.4797 23.7278 17.2186 23.7867 16.9531H6.21484Z" fill="#D80027"/>
<path d="M15.0007 23.9992C19.0161 23.9992 22.4168 21.3694 23.5757 17.7383H6.42578C7.58471 21.3693 10.9854 23.9992 15.0007 23.9992Z" fill="#6DA544"/>
<path d="M15.0008 6C10.9854 6.00004 7.58478 8.62983 6.42578 12.2609L23.5757 12.2609C22.4169 8.62979 19.0162 5.99996 15.0008 6Z" fill="#338AF3"/>
<path d="M10.114 9.71787C10.114 8.87493 10.7065 8.17075 11.4976 7.99799C11.376 7.97141 11.2498 7.95703 11.1202 7.95703C10.1478 7.95703 9.35938 8.74537 9.35938 9.7179C9.35938 10.6904 10.1477 11.4788 11.1202 11.4788C11.2498 11.4788 11.376 11.4644 11.4976 11.4378C10.7065 11.265 10.114 10.5608 10.114 9.71787Z" fill="#F0F0F0"/>
<path d="M12.5362 10.5156L12.6554 10.8825H13.0411L12.7291 11.1092L12.8483 11.4761L12.5362 11.2494L12.2241 11.4761L12.3433 11.1092L12.0312 10.8825H12.417L12.5362 10.5156Z" fill="#F0F0F0"/>
<path d="M13.7705 10.5156L13.8898 10.8825H14.2755L13.9634 11.1092L14.0826 11.4761L13.7705 11.2494L13.4585 11.4761L13.5777 11.1092L13.2656 10.8825H13.6513L13.7705 10.5156Z" fill="#F0F0F0"/>
<path d="M15.0011 10.5156L15.1203 10.8825H15.506L15.1939 11.1092L15.3131 11.4761L15.0011 11.2494L14.689 11.4761L14.8082 11.1092L14.4961 10.8825H14.8819L15.0011 10.5156Z" fill="#F0F0F0"/>
<path d="M16.2315 10.5156L16.3508 10.8825H16.7365L16.4244 11.1092L16.5436 11.4761L16.2315 11.2494L15.9194 11.4761L16.0387 11.1092L15.7266 10.8825H16.1123L16.2315 10.5156Z" fill="#F0F0F0"/>
<path d="M17.4619 10.5156L17.5812 10.8825H17.9669L17.6548 11.1092L17.7741 11.4761L17.4619 11.2494L17.1499 11.4761L17.2691 11.1092L16.957 10.8825H17.3427L17.4619 10.5156Z" fill="#F0F0F0"/>
<path d="M13.7705 9.23828L13.8898 9.6051H14.2755L13.9634 9.83189L14.0826 10.1987L13.7705 9.97199L13.4585 10.1987L13.5777 9.83189L13.2656 9.6051H13.6513L13.7705 9.23828Z" fill="#F0F0F0"/>
<path d="M15.0011 9.23828L15.1203 9.6051H15.506L15.1939 9.83189L15.3131 10.1987L15.0011 9.97199L14.689 10.1987L14.8082 9.83189L14.4961 9.6051H14.8819L15.0011 9.23828Z" fill="#F0F0F0"/>
<path d="M16.2315 9.23828L16.3508 9.6051H16.7365L16.4244 9.83189L16.5436 10.1987L16.2315 9.97199L15.9194 10.1987L16.0387 9.83189L15.7266 9.6051H16.1123L16.2315 9.23828Z" fill="#F0F0F0"/>
<path d="M17.4619 9.23828L17.5812 9.6051H17.9669L17.6548 9.83189L17.7741 10.1987L17.4619 9.97199L17.1499 10.1987L17.2691 9.83189L16.957 9.6051H17.3427L17.4619 9.23828Z" fill="#F0F0F0"/>
<path d="M15.0011 7.95703L15.1203 8.32392H15.506L15.1939 8.55064L15.3131 8.91754L15.0011 8.69081L14.689 8.91754L14.8082 8.55064L14.4961 8.32392H14.8819L15.0011 7.95703Z" fill="#F0F0F0"/>
<path d="M16.2315 7.95703L16.3508 8.32392H16.7365L16.4244 8.55064L16.5436 8.91754L16.2315 8.69081L15.9194 8.91754L16.0387 8.55064L15.7266 8.32392H16.1123L16.2315 7.95703Z" fill="#F0F0F0"/>
<path d="M17.4619 7.95703L17.5812 8.32392H17.9669L17.6548 8.55064L17.7741 8.91754L17.4619 8.69081L17.1499 8.91754L17.2691 8.55064L16.957 8.32392H17.3427L17.4619 7.95703Z" fill="#F0F0F0"/>
</g>
<defs>
<clipPath id="clip0_4804_1682">
<rect width="18" height="18" fill="white" transform="translate(6 6)"/>
</clipPath>
</defs>
</svg>
