<svg width="30" height="30" viewBox="0 0 30 30" fill="none" xmlns="http://www.w3.org/2000/svg">
<path d="M0 5C0 2.23858 2.23858 0 5 0H25C27.7614 0 30 2.23858 30 5V25C30 27.7614 27.7614 30 25 30H5C2.23858 30 0 27.7614 0 25V5Z" fill="white"/>
<g clip-path="url(#clip0_4804_1741)">
<path d="M23.107 18.9134C23.6791 17.7301 24 16.4028 24 15.0003C24 13.5979 23.6791 12.2705 23.107 11.0873L15 10.3047L6.89304 11.0873C6.32087 12.2705 6 13.5979 6 15.0003C6 16.4028 6.32087 17.7301 6.89304 18.9134L15 19.696L23.107 18.9134Z" fill="#0052B4"/>
<path d="M15.0015 24.001C18.5696 24.001 21.6527 21.9245 23.1085 18.9141H6.89453C8.35028 21.9245 11.4333 24.001 15.0015 24.001Z" fill="#D80027"/>
<path d="M21.5863 16.7685L21.1109 17.14L21.3172 17.7067L20.8171 17.3695L20.3417 17.7408L20.5079 17.1609L20.0078 16.8236L20.6107 16.8026L20.7771 16.2227L20.9834 16.7895L21.5863 16.7685Z" fill="#F0F0F0"/>
<path d="M20.3706 14.6581L20.051 15.1697L20.4388 15.6317L19.8534 15.486L19.5337 15.9975L19.4916 15.3957L18.9062 15.2497L19.4657 15.0237L19.4236 14.4219L19.8113 14.8841L20.3706 14.6581Z" fill="#F0F0F0"/>
<path d="M18.5058 13.0938L18.3804 13.6838L18.9028 13.9855L18.3029 14.0487L18.1774 14.6387L17.932 14.0876L17.332 14.1506L17.7804 13.7469L17.5351 13.1959L18.0575 13.4974L18.5058 13.0938Z" fill="#F0F0F0"/>
<path d="M16.2171 12.2617L16.3012 12.8591L16.8952 12.9638L16.353 13.2284L16.437 13.8258L16.018 13.3918L15.4757 13.6563L15.7589 13.1235L15.3398 12.6896L15.934 12.7944L16.2171 12.2617Z" fill="#F0F0F0"/>
<path d="M13.7835 12.2617L14.0668 12.7944L14.6608 12.6896L14.2418 13.1236L14.5249 13.6563L13.9828 13.3918L13.5636 13.8257L13.6477 13.2284L13.1055 12.964L13.6996 12.8591L13.7835 12.2617Z" fill="#F0F0F0"/>
<path d="M11.4946 13.0938L11.943 13.4974L12.4653 13.1959L12.22 13.7471L12.6683 14.1507L12.0684 14.0876L11.8229 14.6387L11.6976 14.0486L11.0977 13.9856L11.6201 13.6839L11.4946 13.0938Z" fill="#F0F0F0"/>
<path d="M9.63053 14.658L10.19 14.884L10.5776 14.4219L10.5357 15.0238L11.0949 15.2498L10.5096 15.3957L10.4675 15.9974L10.1479 15.4859L9.5625 15.6317L9.95027 15.1696L9.63053 14.658Z" fill="#F0F0F0"/>
<path d="M8.41406 16.7684L9.01706 16.7894L9.22329 16.2227L9.38975 16.8026L9.99258 16.8237L9.49245 17.161L9.65866 17.7409L9.18335 17.3695L8.68318 17.7067L8.88952 17.1399L8.41406 16.7684Z" fill="#F0F0F0"/>
<path d="M23.1085 11.087C21.6527 8.0765 18.5696 6 15.0015 6C11.4333 6 8.35028 8.0765 6.89453 11.087H23.1085Z" fill="#FFDA44"/>
</g>
<defs>
<clipPath id="clip0_4804_1741">
<rect width="18" height="18" fill="white" transform="translate(6 6)"/>
</clipPath>
</defs>
</svg>
